<svg width="67" height="65" viewBox="0 0 67 65" fill="none" xmlns="http://www.w3.org/2000/svg">
<path d="M52.8238 65H13.8291C7.83205 65 2.95714 60.0904 2.95714 54.061V0H63.6957V54.061C63.6957 60.095 58.8162 65 52.8238 65ZM5.71652 2.77639V54.061C5.71652 58.5634 9.3543 62.2236 13.8291 62.2236H52.8238C57.2986 62.2236 60.9364 58.5634 60.9364 54.061V2.77639H5.71652Z" fill="#A6C04C"/>
<path d="M63.4428 5.14095H3.87693V7.91735H63.4428V5.14095Z" fill="#A6C04C"/>
<path d="M63.4428 19.4116H3.87693V22.188H63.4428V19.4116Z" fill="#A6C04C"/>
<path d="M63.4428 33.6823H3.87693V36.4587H63.4428V33.6823Z" fill="#A6C04C"/>
<path d="M63.4428 47.9529H3.87693V50.7293H63.4428V47.9529Z" fill="#A6C04C"/>
<path d="M63.6957 2.85506H60.9363V49.6095H63.6957V2.85506Z" fill="#A6C04C"/>
<path d="M52.1017 2.85506H49.3423V63.6118H52.1017V2.85506Z" fill="#A6C04C"/>
<path d="M40.5031 2.85506H37.7437V63.6118H40.5031V2.85506Z" fill="#A6C04C"/>
<path d="M28.9091 2.85506H26.1497V63.6118H28.9091V2.85506Z" fill="#A6C04C"/>
<path d="M17.3105 2.85506H14.5511V63.6118H17.3105V2.85506Z" fill="#A6C04C"/>
<path d="M50.722 18.028C53.1172 18.028 55.0589 16.0744 55.0589 13.6645C55.0589 11.2546 53.1172 9.30092 50.722 9.30092C48.3269 9.30092 46.3852 11.2546 46.3852 13.6645C46.3852 16.0744 48.3269 18.028 50.722 18.028Z" fill="#F5F5F5"/>
<path d="M62.316 46.5694C64.7112 46.5694 66.6529 44.6157 66.6529 42.2058C66.6529 39.7959 64.7112 37.8422 62.316 37.8422C59.9209 37.8422 57.9792 39.7959 57.9792 42.2058C57.9792 44.6157 59.9209 46.5694 62.316 46.5694Z" fill="#F5F5F5"/>
<path d="M4.33683 46.5694C6.73199 46.5694 8.67366 44.6157 8.67366 42.2058C8.67366 39.7959 6.73199 37.8422 4.33683 37.8422C1.94166 37.8422 0 39.7959 0 42.2058C0 44.6157 1.94166 46.5694 4.33683 46.5694Z" fill="#F5F5F5"/>
</svg>
